<?xml version="1.0" standalone="no"?>
<!DOCTYPE svg PUBLIC "-//W3C//DTD SVG 20010904//EN"
 "http://www.w3.org/TR/2001/REC-SVG-20010904/DTD/svg10.dtd">
<svg version="1.0" xmlns="http://www.w3.org/2000/svg"
 width="512.000000pt" height="512.000000pt" viewBox="0 0 512.000000 512.000000"
 preserveAspectRatio="xMidYMid meet">
<metadata>
Created by potrace 1.14, written by Peter Selinger 2001-2017
</metadata>
<g transform="translate(0.000000,512.000000) scale(0.100000,-0.100000)"
fill="#000000" stroke="none">
<path d="M629 5097 c-55 -37 -59 -53 -59 -260 0 -209 5 -232 63 -267 31 -20
65 -20 1927 -20 1862 0 1896 0 1927 20 57 35 63 58 63 265 0 207 -6 230 -63
265 -31 20 -65 20 -1928 20 l-1896 0 -34 -23z"/>
<path d="M693 4409 c-48 -23 -89 -67 -110 -116 -11 -27 -13 -302 -13 -1570 0
-1476 1 -1540 19 -1578 10 -22 31 -52 47 -67 16 -15 182 -114 369 -221 l340
-194 5 1695 5 1695 206 -354 c113 -195 292 -502 398 -683 l191 -329 0 -1243 0
-1243 172 -98 c170 -96 174 -98 238 -98 64 0 68 2 232 95 l167 95 1 1238 0
1238 403 692 402 691 3 -1696 2 -1697 198 113 c108 62 264 150 345 196 155 87
201 123 223 177 12 27 14 298 14 1573 0 1370 -2 1545 -16 1578 -20 49 -60 90
-109 113 -38 18 -110 19 -1865 19 l-1825 0 -42 -21z m1894 -384 c16 -11 34
-53 63 -145 22 -71 48 -136 56 -145 12 -12 43 -15 157 -15 164 0 190 -9 185
-63 -3 -26 -19 -42 -118 -114 -63 -46 -119 -91 -123 -101 -5 -12 7 -65 36
-156 25 -76 42 -147 39 -158 -7 -28 -46 -44 -74 -31 -13 6 -70 45 -127 87 -57
42 -111 76 -121 76 -9 0 -70 -38 -135 -85 -65 -47 -126 -85 -136 -85 -19 0
-59 33 -59 48 0 4 20 69 45 145 34 109 41 144 34 160 -6 12 -61 58 -122 103
-97 69 -112 84 -115 111 -5 54 21 63 179 63 76 0 144 3 153 6 9 3 34 63 61
145 32 95 53 144 68 154 26 19 28 19 54 0z"/>
</g>
</svg>
